<svg width="57" height="20" viewBox="0 0 57 20" fill="none" xmlns="http://www.w3.org/2000/svg">
<rect width="57" height="20" rx="3" fill="url(#paint0_linear)"/>
<path d="M7 16.8862C8.10457 16.8862 9 15.998 9 14.9025C9 13.8069 8.10457 12.9187 7 12.9187C5.89543 12.9187 5 13.8069 5 14.9025C5 15.998 5.89543 16.8862 7 16.8862Z" fill="white"/>
<path d="M5 7.62903V10.2744C8.676 10.2744 11.667 13.2401 11.667 16.8862H14.333C14.333 11.782 10.146 7.62903 5 7.62903Z" fill="white"/>
<path d="M5 3V5.64532C11.25 5.64532 16.334 10.687 16.334 16.8862H19C19 9.22895 12.72 3 5 3Z" fill="white"/>
<path d="M29.1489 12.686H26.644V17H25.2305V6.33594H28.7607C29.9619 6.33594 30.8848 6.60937 31.5293 7.15625C32.1787 7.70313 32.5034 8.49902 32.5034 9.54395C32.5034 10.208 32.3228 10.7866 31.9614 11.2798C31.605 11.7729 31.1069 12.1416 30.4673 12.3857L32.9722 16.9121V17H31.4634L29.1489 12.686ZM26.644 11.5361H28.8047C29.5029 11.5361 30.0571 11.3555 30.4673 10.9941C30.8823 10.6328 31.0898 10.1494 31.0898 9.54395C31.0898 8.88477 30.8921 8.37939 30.4966 8.02783C30.106 7.67627 29.5396 7.49805 28.7974 7.49316H26.644V11.5361ZM37.623 12.2466C36.417 11.8999 35.5381 11.4751 34.9863 10.9722C34.4395 10.4644 34.166 9.83936 34.166 9.09717C34.166 8.25732 34.5005 7.56396 35.1694 7.01709C35.8433 6.46533 36.7173 6.18945 37.7915 6.18945C38.5239 6.18945 39.1758 6.33105 39.7471 6.61426C40.3232 6.89746 40.7676 7.28809 41.0801 7.78613C41.3975 8.28418 41.5562 8.82861 41.5562 9.41943H40.1426C40.1426 8.7749 39.9375 8.26953 39.5273 7.90332C39.1172 7.53223 38.5386 7.34668 37.7915 7.34668C37.0981 7.34668 36.5562 7.50049 36.1655 7.80811C35.7798 8.11084 35.5869 8.5332 35.5869 9.0752C35.5869 9.50977 35.77 9.87842 36.1362 10.1812C36.5073 10.479 37.1348 10.7524 38.0186 11.0015C38.9072 11.2505 39.6006 11.5264 40.0986 11.8291C40.6016 12.127 40.9727 12.4761 41.2119 12.8765C41.4561 13.2769 41.5781 13.748 41.5781 14.29C41.5781 15.1543 41.2412 15.8477 40.5674 16.3701C39.8936 16.8877 38.9927 17.1465 37.8647 17.1465C37.1323 17.1465 36.4487 17.0073 35.814 16.729C35.1792 16.4458 34.6885 16.0601 34.3418 15.5718C34 15.0835 33.8291 14.5293 33.8291 13.9092H35.2427C35.2427 14.5537 35.4795 15.064 35.9531 15.4399C36.4316 15.811 37.0688 15.9966 37.8647 15.9966C38.6069 15.9966 39.1758 15.8452 39.5713 15.5425C39.9668 15.2397 40.1646 14.8271 40.1646 14.3047C40.1646 13.7822 39.9814 13.3794 39.6152 13.0962C39.249 12.8081 38.585 12.5249 37.623 12.2466ZM46.5293 12.2466C45.3232 11.8999 44.4443 11.4751 43.8926 10.9722C43.3457 10.4644 43.0723 9.83936 43.0723 9.09717C43.0723 8.25732 43.4067 7.56396 44.0757 7.01709C44.7495 6.46533 45.6235 6.18945 46.6978 6.18945C47.4302 6.18945 48.082 6.33105 48.6533 6.61426C49.2295 6.89746 49.6738 7.28809 49.9863 7.78613C50.3037 8.28418 50.4624 8.82861 50.4624 9.41943H49.0488C49.0488 8.7749 48.8438 8.26953 48.4336 7.90332C48.0234 7.53223 47.4448 7.34668 46.6978 7.34668C46.0044 7.34668 45.4624 7.50049 45.0718 7.80811C44.686 8.11084 44.4932 8.5332 44.4932 9.0752C44.4932 9.50977 44.6763 9.87842 45.0425 10.1812C45.4136 10.479 46.041 10.7524 46.9248 11.0015C47.8135 11.2505 48.5068 11.5264 49.0049 11.8291C49.5078 12.127 49.8789 12.4761 50.1182 12.8765C50.3623 13.2769 50.4844 13.748 50.4844 14.29C50.4844 15.1543 50.1475 15.8477 49.4736 16.3701C48.7998 16.8877 47.8989 17.1465 46.771 17.1465C46.0386 17.1465 45.355 17.0073 44.7202 16.729C44.0854 16.4458 43.5947 16.0601 43.248 15.5718C42.9062 15.0835 42.7354 14.5293 42.7354 13.9092H44.1489C44.1489 14.5537 44.3857 15.064 44.8594 15.4399C45.3379 15.811 45.9751 15.9966 46.771 15.9966C47.5132 15.9966 48.082 15.8452 48.4775 15.5425C48.873 15.2397 49.0708 14.8271 49.0708 14.3047C49.0708 13.7822 48.8877 13.3794 48.5215 13.0962C48.1553 12.8081 47.4912 12.5249 46.5293 12.2466Z" fill="white"/>
<defs>
<linearGradient id="paint0_linear" x1="28.5" y1="0" x2="28.5" y2="20" gradientUnits="userSpaceOnUse">
<stop stop-color="#F09C61"/>
<stop offset="1" stop-color="#F97419"/>
</linearGradient>
</defs>
</svg>
